<svg id="kity_svg_6" xmlns="http://www.w3.org/2000/svg" xmlns:xlink="http://www.w3.org/1999/xlink" version="1.1" width="1499" height="944" style="background-color: rgb(251, 251, 251); visibility: visible; background-position: initial initial; background-repeat: initial initial;" viewBox="0 0 1499 944"><defs id="kity_defs_7"><linearGradient id="kity_linearGradient_17" x1="0" y1="0" x2="0" y2="1"><stop id="kity_stop_18" offset="0" stop-color="rgb(255, 255, 255)"></stop><stop id="kity_stop_19" offset="1" stop-color="rgb(204, 204, 204)"></stop></linearGradient><marker id="kity_marker_2" orient="auto" refX="6" refY="0" viewBox="-7 -7 14 14" markerWidth="7" markerHeight="7" markerUnits="userSpaceOnUse"><path id="kity_path_3" fill="rgb(115, 161, 191)" stroke="none" d="M6,0A6,6,0,1,1,-6,0A6,6,0,1,1,6,0"></path></marker></defs><g id="kity_g_8"><g id="minder1" text-rendering="optimize-speed"><g id="minder_connect_group1"><path id="kity_path_31" fill="none" stroke="rgb(115, 161, 191)" stroke-width="1" d="M1011.5,432.5A158,154,0,0,1,1169.5,278.5"></path><path id="kity_path_33" fill="none" stroke="rgb(115, 161, 191)" stroke-width="1" d="M1239.5,278.5C1254.5,278.5,1254.5,266.5,1269.5,266.5L1371.5,266.5"></path><path id="kity_path_35" fill="none" stroke="rgb(115, 161, 191)" stroke-width="1" d="M1239.5,278.5C1254.5,278.5,1254.5,318.5,1269.5,318.5L1371.5,318.5"></path><path id="kity_path_37" fill="none" stroke="rgb(115, 161, 191)" stroke-width="1" d="M1011.5,432.5A158,12,0,0,0,1169.5,444.5"></path><path id="kity_path_39" fill="none" stroke="rgb(115, 161, 191)" stroke-width="1" d="M1239.5,444.5C1254.5,444.5,1254.5,380.5,1269.5,380.5L1467.5,380.5"></path><path id="kity_path_41" fill="none" stroke="rgb(115, 161, 191)" stroke-width="1" d="M1239.5,444.5C1254.5,444.5,1254.5,432.5,1269.5,432.5L1467.5,432.5"></path><path id="kity_path_43" fill="none" stroke="rgb(115, 161, 191)" stroke-width="1" d="M1239.5,444.5C1254.5,444.5,1254.5,484.5,1269.5,484.5L1338.5,484.5"></path><path id="kity_path_45" fill="none" stroke="rgb(115, 161, 191)" stroke-width="1" d="M1239.5,444.5C1254.5,444.5,1254.5,536.5,1269.5,536.5L1359.5,536.5"></path><path id="kity_path_47" fill="none" stroke="rgb(115, 161, 191)" stroke-width="1" d="M1011.5,432.5A158,154,0,0,0,1169.5,586.5"></path><path id="kity_path_49" fill="none" stroke="rgb(115, 161, 191)" stroke-width="1" d="M1239.5,586.5C1254.5,586.5,1254.5,600.5,1269.5,600.5L1479.5,600.5"></path><path id="kity_path_51" fill="none" stroke="rgb(115, 161, 191)" stroke-width="1" d="M1011.5,432.5A158,283,0,0,0,853.5,149.5"></path><path id="kity_path_53" fill="none" stroke="rgb(115, 161, 191)" stroke-width="1" d="M655.5,149.5C640.5,149.5,640.5,45.5,625.5,45.5L571.5,45.5"></path><path id="kity_path_55" fill="none" stroke="rgb(115, 161, 191)" stroke-width="1" d="M571.5,45.5C556.5,45.5,556.5,45.5,541.5,45.5L24.5,45.5"></path><path id="kity_path_57" fill="none" stroke="rgb(115, 161, 191)" stroke-width="1" d="M655.5,149.5C640.5,149.5,640.5,281.5,625.5,281.5L417.5,281.5"></path><path id="kity_path_59" fill="none" stroke="rgb(115, 161, 191)" stroke-width="1" d="M417.5,281.5C402.5,281.5,402.5,117.5,387.5,117.5L309.5,117.5"></path><path id="kity_path_61" fill="none" stroke="rgb(115, 161, 191)" stroke-width="1" d="M309.5,117.5C294.5,117.5,294.5,137.5,279.5,137.5L49.5,137.5"></path><path id="kity_path_63" fill="none" stroke="rgb(115, 161, 191)" stroke-width="1" d="M417.5,281.5C402.5,281.5,402.5,212.5,387.5,212.5L309.5,212.5"></path><path id="kity_path_65" fill="none" stroke="rgb(115, 161, 191)" stroke-width="1" d="M309.5,212.5C294.5,212.5,294.5,236.5,279.5,236.5L49.5,236.5"></path><path id="kity_path_67" fill="none" stroke="rgb(115, 161, 191)" stroke-width="1" d="M417.5,281.5C402.5,281.5,402.5,340.5,387.5,340.5L309.5,340.5"></path><path id="kity_path_69" fill="none" stroke="rgb(115, 161, 191)" stroke-width="1" d="M309.5,340.5C294.5,340.5,294.5,393.5,279.5,393.5L49.5,393.5"></path><path id="kity_path_71" fill="none" stroke="rgb(115, 161, 191)" stroke-width="1" d="M417.5,281.5C402.5,281.5,402.5,445.5,387.5,445.5L249.5,445.5"></path><path id="kity_path_73" fill="none" stroke="none" display="none"></path><path id="kity_path_75" fill="none" stroke="rgb(115, 161, 191)" stroke-width="1" d="M1011.5,432.5A158,283,0,0,1,853.5,715.5"></path><path id="kity_path_77" fill="none" stroke="rgb(115, 161, 191)" stroke-width="1" d="M783.5,715.5C768.5,715.5,768.5,612.5,753.5,612.5L699.5,612.5"></path><path id="kity_path_79" fill="none" stroke="rgb(115, 161, 191)" stroke-width="1" d="M699.5,612.5C684.5,612.5,684.5,508.5,669.5,508.5L441.5,508.5"></path><path id="kity_path_81" fill="none" stroke="rgb(115, 161, 191)" stroke-width="1" d="M699.5,612.5C684.5,612.5,684.5,560.5,669.5,560.5L292.5,560.5"></path><path id="kity_path_83" fill="none" stroke="rgb(115, 161, 191)" stroke-width="1" d="M699.5,612.5C684.5,612.5,684.5,612.5,669.5,612.5L506.5,612.5"></path><path id="kity_path_85" fill="none" stroke="rgb(115, 161, 191)" stroke-width="1" d="M699.5,612.5C684.5,612.5,684.5,664.5,669.5,664.5L524.5,664.5"></path><path id="kity_path_87" fill="none" stroke="rgb(115, 161, 191)" stroke-width="1" d="M699.5,612.5C684.5,612.5,684.5,716.5,669.5,716.5L521.5,716.5"></path><path id="kity_path_89" fill="none" stroke="rgb(115, 161, 191)" stroke-width="1" d="M783.5,715.5C768.5,715.5,768.5,846.5,753.5,846.5L638.5,846.5"></path><path id="kity_path_91" fill="none" stroke="rgb(115, 161, 191)" stroke-width="1" d="M638.5,846.5C623.5,846.5,623.5,768.5,608.5,768.5L91.5,768.5"></path><path id="kity_path_93" fill="none" stroke="rgb(115, 161, 191)" stroke-width="1" d="M638.5,846.5C623.5,846.5,623.5,820.5,608.5,820.5L20.5,820.5"></path><path id="kity_path_95" fill="none" stroke="rgb(115, 161, 191)" stroke-width="1" d="M638.5,846.5C623.5,846.5,623.5,872.5,608.5,872.5L287.5,872.5"></path><path id="kity_path_97" fill="none" stroke="rgb(115, 161, 191)" stroke-width="1" d="M638.5,846.5C623.5,846.5,623.5,924.5,608.5,924.5L299.5,924.5"></path></g><g id="minder_node1"><path id="node_outline1" fill="rgb(115, 161, 191)" stroke="rgb(115, 161, 191)" d="M976.5,412.5h70a5,5,0,0,1,5,5v30a5,5,0,0,1,-5,5h-70a5,5,0,0,1,-5,-5v-30a5,5,0,0,1,5,-5z" stroke-width="3"></path><g id="node_text1" fill="white"><text id="kity_text_22" text-rendering="inherit" font-size="16" dy=".8em" y="424.5" x="995.5">系统</text></g></g><g id="kity_g_12"><path id="kity_path_13" fill="none" stroke="none" d="M995.5,432.5h0v0h0z"></path></g><g id="kity_g_14"><path id="kity_path_15" fill="none" stroke="none" d="M995.5,432.5h0v0h0z"></path><path id="kity_path_16" fill="none" stroke="none"></path></g><g id="minder_node2"><g id="node_expander3" style="cursor: pointer;"><path id="kity_path_209" fill="white" stroke="gray" d="M1170.5,278.5A6,6,0,1,1,1158.5,278.5A6,6,0,1,1,1170.5,278.5"></path><path id="kity_path_210" fill="none" stroke="gray" d="M1160,278.5L1169,278.5"></path></g><path id="node_outline4" fill="rgb(238, 243, 246)" stroke="rgb(115, 161, 191)" d="M1174.5,265.5h62a3,3,0,0,1,3,3v20a3,3,0,0,1,-3,3h-62a3,3,0,0,1,-3,-3v-20a3,3,0,0,1,3,-3z" stroke-width="1"></path><g id="node_text4" fill="black"><text id="kity_text_103" text-rendering="inherit" font-size="14" dy=".8em" y="271.5" x="1191.5">分类</text></g></g><g id="minder_node3"><g id="node_expander1" display="none" style="cursor: pointer;"><path id="kity_path_203" fill="white" stroke="gray" d="M1279.5,252.5A6,6,0,1,1,1267.5,252.5A6,6,0,1,1,1279.5,252.5"></path><path id="kity_path_204" fill="none" stroke="gray"></path></g><path id="node_outline2" fill="none" stroke="none" d="M1284.5,241.5h82a5,5,0,0,1,5,5v12a5,5,0,0,1,-5,5h-82a5,5,0,0,1,-5,-5v-12a5,5,0,0,1,5,-5z"></path><g id="node_text2" fill="black"><text id="kity_text_99" text-rendering="inherit" font-size="12" dy=".8em" y="246.5" x="1289.5">离散时间系统</text></g></g><g id="minder_node4"><g id="node_expander2" display="none" style="cursor: pointer;"><path id="kity_path_206" fill="white" stroke="gray" d="M1279.5,304.5A6,6,0,1,1,1267.5,304.5A6,6,0,1,1,1279.5,304.5"></path><path id="kity_path_207" fill="none" stroke="gray"></path></g><path id="node_outline3" fill="none" stroke="none" d="M1284.5,293.5h82a5,5,0,0,1,5,5v12a5,5,0,0,1,-5,5h-82a5,5,0,0,1,-5,-5v-12a5,5,0,0,1,5,-5z"></path><g id="node_text3" fill="black"><text id="kity_text_101" text-rendering="inherit" font-size="12" dy=".8em" y="298.5" x="1289.5">连续时间系统</text></g></g><g id="minder_node5"><g id="node_expander8" style="cursor: pointer;"><path id="kity_path_224" fill="white" stroke="gray" d="M1170.5,444.5A6,6,0,1,1,1158.5,444.5A6,6,0,1,1,1170.5,444.5"></path><path id="kity_path_225" fill="none" stroke="gray" d="M1160,444.5L1169,444.5"></path></g><path id="node_outline9" fill="rgb(238, 243, 246)" stroke="rgb(115, 161, 191)" d="M1174.5,431.5h62a3,3,0,0,1,3,3v20a3,3,0,0,1,-3,3h-62a3,3,0,0,1,-3,-3v-20a3,3,0,0,1,3,-3z" stroke-width="1"></path><g id="node_text9" fill="black"><text id="kity_text_113" text-rendering="inherit" font-size="14" dy=".8em" y="437.5" x="1191.5">性质</text></g></g><g id="minder_node6"><g id="node_expander4" display="none" style="cursor: pointer;"><path id="kity_path_212" fill="white" stroke="gray" d="M1279.5,366.5A6,6,0,1,1,1267.5,366.5A6,6,0,1,1,1279.5,366.5"></path><path id="kity_path_213" fill="none" stroke="gray"></path></g><path id="node_outline5" fill="none" stroke="none" d="M1284.5,355.5h178a5,5,0,0,1,5,5v12a5,5,0,0,1,-5,5h-178a5,5,0,0,1,-5,-5v-12a5,5,0,0,1,5,-5z"></path><g id="node_text5" fill="black"><text id="kity_text_105" text-rendering="inherit" font-size="12" dy=".8em" y="360.5" x="1289.5">因果性：输出信号不受未来影响</text></g></g><g id="minder_node7"><g id="node_expander5" display="none" style="cursor: pointer;"><path id="kity_path_215" fill="white" stroke="gray" d="M1279.5,418.5A6,6,0,1,1,1267.5,418.5A6,6,0,1,1,1279.5,418.5"></path><path id="kity_path_216" fill="none" stroke="gray"></path></g><path id="node_outline6" fill="none" stroke="none" d="M1284.5,407.5h178a5,5,0,0,1,5,5v12a5,5,0,0,1,-5,5h-178a5,5,0,0,1,-5,-5v-12a5,5,0,0,1,5,-5z"></path><g id="node_text6" fill="black"><text id="kity_text_107" text-rendering="inherit" font-size="12" dy=".8em" y="412.5" x="1289.5">稳定性：有界输入确保有界输出</text></g></g><g id="minder_node8"><g id="node_expander6" display="none" style="cursor: pointer;"><path id="kity_path_218" fill="white" stroke="gray" d="M1279.5,470.5A6,6,0,1,1,1267.5,470.5A6,6,0,1,1,1279.5,470.5"></path><path id="kity_path_219" fill="none" stroke="gray"></path></g><path id="node_outline7" fill="none" stroke="none" d="M1284.5,459.5h49a5,5,0,0,1,5,5v12a5,5,0,0,1,-5,5h-49a5,5,0,0,1,-5,-5v-12a5,5,0,0,1,5,-5z"></path><g id="node_text7" fill="black"><text id="kity_text_109" text-rendering="inherit" font-size="12" dy=".8em" y="464.5" x="1289.5">线性性&#xa0;</text></g></g><g id="minder_node9"><g id="node_expander7" display="none" style="cursor: pointer;"><path id="kity_path_221" fill="white" stroke="gray" d="M1279.5,522.5A6,6,0,1,1,1267.5,522.5A6,6,0,1,1,1279.5,522.5"></path><path id="kity_path_222" fill="none" stroke="gray"></path></g><path id="node_outline8" fill="none" stroke="none" d="M1284.5,511.5h70a5,5,0,0,1,5,5v12a5,5,0,0,1,-5,5h-70a5,5,0,0,1,-5,-5v-12a5,5,0,0,1,5,-5z"></path><g id="node_text8" fill="black"><text id="kity_text_111" text-rendering="inherit" font-size="12" dy=".8em" y="516.5" x="1289.5">时间不变性</text></g></g><g id="minder_node10"><g id="node_expander10" style="cursor: pointer;"><path id="kity_path_230" fill="white" stroke="gray" d="M1170.5,586.5A6,6,0,1,1,1158.5,586.5A6,6,0,1,1,1170.5,586.5"></path><path id="kity_path_231" fill="none" stroke="gray" d="M1160,586.5L1169,586.5"></path></g><path id="node_outline11" fill="rgb(238, 243, 246)" stroke="rgb(115, 161, 191)" d="M1174.5,573.5h62a3,3,0,0,1,3,3v20a3,3,0,0,1,-3,3h-62a3,3,0,0,1,-3,-3v-20a3,3,0,0,1,3,-3z" stroke-width="1"></path><g id="node_text11" fill="black"><text id="kity_text_117" text-rendering="inherit" font-size="14" dy=".8em" y="579.5" x="1191.5">定义</text></g></g><g id="minder_node11"><g id="node_expander9" display="none" style="cursor: pointer;"><path id="kity_path_227" fill="white" stroke="gray" d="M1279.5,586.5A6,6,0,1,1,1267.5,586.5A6,6,0,1,1,1279.5,586.5"></path><path id="kity_path_228" fill="none" stroke="gray"></path></g><path id="node_outline10" fill="none" stroke="none" d="M1284.5,575.5h190a5,5,0,0,1,5,5v12a5,5,0,0,1,-5,5h-190a5,5,0,0,1,-5,-5v-12a5,5,0,0,1,5,-5z"></path><g id="node_text10" fill="black"><text id="kity_text_115" text-rendering="inherit" font-size="12" dy=".8em" y="580.5" x="1289.5">将输入信号转变为输出信号的变换</text></g></g><g id="minder_node12"><g id="node_expander22" style="cursor: pointer;"><path id="kity_path_266" fill="white" stroke="gray" d="M864.5,149.5A6,6,0,1,1,852.5,149.5A6,6,0,1,1,864.5,149.5"></path><path id="kity_path_267" fill="none" stroke="gray" d="M854,149.5L863,149.5"></path></g><path id="node_outline23" fill="rgb(238, 243, 246)" stroke="rgb(115, 161, 191)" d="M658.5,136.5h190a3,3,0,0,1,3,3v20a3,3,0,0,1,-3,3h-190a3,3,0,0,1,-3,-3v-20a3,3,0,0,1,3,-3z" stroke-width="1"></path><g id="node_text23" fill="black"><text id="kity_text_141" text-rendering="inherit" font-size="14" dy=".8em" y="142.5" x="675.5">重点研究的系统：LTI系统</text></g></g><g id="minder_node13"><g id="node_expander12" style="cursor: pointer;"><path id="kity_path_236" fill="white" stroke="gray" d="M627.5,31.5A6,6,0,1,1,615.5,31.5A6,6,0,1,1,627.5,31.5"></path><path id="kity_path_237" fill="none" stroke="gray" d="M617,31.5L626,31.5"></path></g><path id="node_outline13" fill="none" stroke="none" d="M576.5,20.5h34a5,5,0,0,1,5,5v12a5,5,0,0,1,-5,5h-34a5,5,0,0,1,-5,-5v-12a5,5,0,0,1,5,-5z"></path><g id="node_text13" fill="black"><text id="kity_text_121" text-rendering="inherit" font-size="12" dy=".8em" y="25.5" x="581.5">表示</text></g></g><g id="minder_node14"><g id="node_expander11" display="none" style="cursor: pointer;"><path id="kity_path_233" fill="white" stroke="gray" d="M543.5,31.5A6,6,0,1,1,531.5,31.5A6,6,0,1,1,543.5,31.5"></path><path id="kity_path_234" fill="none" stroke="gray"></path></g><path id="node_outline12" fill="none" stroke="none" d="M29.5,20.5h497a5,5,0,0,1,5,5v12a5,5,0,0,1,-5,5h-497a5,5,0,0,1,-5,-5v-12a5,5,0,0,1,5,-5z"></path><g id="node_text12" fill="black"><text id="kity_text_119" text-rendering="inherit" font-size="12" dy=".8em" y="25.5" x="34.5">可以用impulse response表示一个LTI系统，输出信号是输入信号与impulse response的卷积</text></g></g><g id="minder_node15"><g id="node_expander21" style="cursor: pointer;"><path id="kity_path_263" fill="white" stroke="gray" d="M627.5,267.5A6,6,0,1,1,615.5,267.5A6,6,0,1,1,627.5,267.5"></path><path id="kity_path_264" fill="none" stroke="gray" d="M617,267.5L626,267.5"></path></g><path id="node_outline22" fill="none" stroke="none" d="M422.5,256.5h188a5,5,0,0,1,5,5v12a5,5,0,0,1,-5,5h-188a5,5,0,0,1,-5,-5v-12a5,5,0,0,1,5,-5z"></path><g id="node_text22" fill="black"><text id="kity_text_139" text-rendering="inherit" font-size="12" dy=".8em" y="261.5" x="427.5">complex exponential response</text></g></g><g id="minder_node16"><g id="node_expander14" style="cursor: pointer;"><path id="kity_path_242" fill="white" stroke="gray" d="M389.5,103.5A6,6,0,1,1,377.5,103.5A6,6,0,1,1,389.5,103.5"></path><path id="kity_path_243" fill="none" stroke="gray" d="M379,103.5L388,103.5"></path></g><path id="node_outline15" fill="none" stroke="none" d="M314.5,92.5h58a5,5,0,0,1,5,5v12a5,5,0,0,1,-5,5h-58a5,5,0,0,1,-5,-5v-12a5,5,0,0,1,5,-5z"></path><g id="node_text15" fill="black"><text id="kity_text_125" text-rendering="inherit" font-size="12" dy=".8em" y="97.5" x="319.5">连续信号</text></g></g><g id="minder_node17"><g id="node_expander13" style="cursor: pointer;" display="none"><path id="kity_path_239" fill="white" stroke="gray" d="M281.5,104A6,6,0,1,1,269.5,104A6,6,0,1,1,281.5,104"></path><path id="kity_path_240" fill="none" stroke="gray"></path></g><path id="node_outline14" fill="none" stroke="none" d="M54.5,73.5h210a5,5,0,0,1,5,5v51a5,5,0,0,1,-5,5h-210a5,5,0,0,1,-5,-5v-51a5,5,0,0,1,5,-5z"></path><g id="node_text14" fill="black"><text id="kity_text_123" text-rendering="inherit" font-size="12" dy=".8em" y="117.5" x="158.5"> </text></g><image id="kity_image_166" xlink:href="https://kityminder-img.gz.bcebos.com/f5831bb82d0b089fa2661b04a508dad431f87a6c" x="59.5" y="78.5" width="200" height="34"></image></g><g id="minder_node18"><g id="node_expander16" style="cursor: pointer;"><path id="kity_path_248" fill="white" stroke="gray" d="M389.5,198.5A6,6,0,1,1,377.5,198.5A6,6,0,1,1,389.5,198.5"></path><path id="kity_path_249" fill="none" stroke="gray" d="M379,198.5L388,198.5"></path></g><path id="node_outline17" fill="none" stroke="none" d="M314.5,187.5h58a5,5,0,0,1,5,5v12a5,5,0,0,1,-5,5h-58a5,5,0,0,1,-5,-5v-12a5,5,0,0,1,5,-5z"></path><g id="node_text17" fill="black"><text id="kity_text_129" text-rendering="inherit" font-size="12" dy=".8em" y="192.5" x="319.5">离散信号</text></g></g><g id="minder_node19"><g id="node_expander15" style="cursor: pointer;" display="none"><path id="kity_path_245" fill="white" stroke="gray" d="M281.5,199A6,6,0,1,1,269.5,199A6,6,0,1,1,281.5,199"></path><path id="kity_path_246" fill="none" stroke="gray"></path></g><path id="node_outline16" fill="none" stroke="none" d="M54.5,164.5h210a5,5,0,0,1,5,5v59a5,5,0,0,1,-5,5h-210a5,5,0,0,1,-5,-5v-59a5,5,0,0,1,5,-5z" stroke-width="3"></path><g id="node_text16" fill="black"><text id="kity_text_127" text-rendering="inherit" font-size="12" dy=".8em" y="216.5" x="158.5"> </text></g><image id="kity_image_304" xlink:href="https://kityminder-img.gz.bcebos.com/5b22b644f62feafef74ba72b6d442d74aeb182b8" x="59.5" y="169.5" width="200" height="42"></image></g><g id="minder_node20"><g id="node_expander18" style="cursor: pointer;"><path id="kity_path_254" fill="white" stroke="gray" d="M389.5,326.5A6,6,0,1,1,377.5,326.5A6,6,0,1,1,389.5,326.5"></path><path id="kity_path_255" fill="none" stroke="gray" d="M379,326.5L388,326.5"></path></g><path id="node_outline19" fill="none" stroke="none" d="M314.5,315.5h58a5,5,0,0,1,5,5v12a5,5,0,0,1,-5,5h-58a5,5,0,0,1,-5,-5v-12a5,5,0,0,1,5,-5z"></path><g id="node_text19" fill="black"><text id="kity_text_133" text-rendering="inherit" font-size="12" dy=".8em" y="320.5" x="319.5">频率响应</text></g></g><g id="minder_node21"><g id="node_expander17" style="cursor: pointer;" display="none"><path id="kity_path_251" fill="white" stroke="gray" d="M281.5,326.5A6,6,0,1,1,269.5,326.5A6,6,0,1,1,281.5,326.5"></path><path id="kity_path_252" fill="none" stroke="gray"></path></g><path id="node_outline18" fill="none" stroke="none" d="M54.5,262.5h210a5,5,0,0,1,5,5v118a5,5,0,0,1,-5,5h-210a5,5,0,0,1,-5,-5v-118a5,5,0,0,1,5,-5z" stroke-width="3"></path><g id="node_text18" fill="black"><text id="kity_text_131" text-rendering="inherit" font-size="12" dy=".8em" y="373.5" x="158.5"> </text></g><image id="kity_image_167" xlink:href="https://kityminder-img.gz.bcebos.com/c651c0bbc0a19336dc56c81a5c268de860d18641" x="59.5" y="267.5" width="200" height="101"></image></g><g id="minder_node22"><g id="node_expander20" style="cursor: pointer;"><path id="kity_path_260" fill="white" stroke="gray" d="M389.5,431.5A6,6,0,1,1,377.5,431.5A6,6,0,1,1,389.5,431.5"></path><path id="kity_path_261" fill="none" stroke="gray" d="M379,431.5L388,431.5M383.5,427L383.5,436"></path></g><path id="node_outline21" fill="none" stroke="none" d="M254.5,420.5h118a5,5,0,0,1,5,5v12a5,5,0,0,1,-5,5h-118a5,5,0,0,1,-5,-5v-12a5,5,0,0,1,5,-5z"></path><g id="node_text21" fill="black"><text id="kity_text_137" text-rendering="inherit" font-size="12" dy=".8em" y="425.5" x="259.5">对频率响应的理解：</text></g></g><g id="minder_node23" display="none"><g id="node_expander19" display="none" style="cursor: pointer;"><path id="kity_path_257" fill="white" stroke="gray" d="M221.5,431.5A6,6,0,1,1,209.5,431.5A6,6,0,1,1,221.5,431.5"></path><path id="kity_path_258" fill="none" stroke="gray"></path></g><path id="node_outline20" fill="none" stroke="none" d="M204.5,420.5h728a5,5,0,0,1,5,5v12a5,5,0,0,1,-5,5h-728a5,5,0,0,1,-5,-5v-12a5,5,0,0,1,5,-5z"></path><g id="node_text20" fill="black"><text id="kity_text_135" text-rendering="inherit" font-size="12" dy=".8em" y="425.5" x="209.5">对于负指数（频域）输入，LTI的输出只是乘上了一个复数H，它的模的大小是一个关于频率的函数，由此得出它是低通还是高通滤波器。</text></g></g><g id="minder_node24"><g id="node_expander34" style="cursor: pointer;"><path id="kity_path_302" fill="white" stroke="gray" d="M864.5,715.5A6,6,0,1,1,852.5,715.5A6,6,0,1,1,864.5,715.5"></path><path id="kity_path_303" fill="none" stroke="gray" d="M854,715.5L863,715.5"></path></g><path id="node_outline35" fill="rgb(238, 243, 246)" stroke="rgb(115, 161, 191)" d="M786.5,702.5h62a3,3,0,0,1,3,3v20a3,3,0,0,1,-3,3h-62a3,3,0,0,1,-3,-3v-20a3,3,0,0,1,3,-3z" stroke-width="1"></path><g id="node_text35" fill="black"><text id="kity_text_165" text-rendering="inherit" font-size="14" dy=".8em" y="708.5" x="803.5">卷积</text></g></g><g id="minder_node25"><g id="node_expander28" style="cursor: pointer;"><path id="kity_path_284" fill="white" stroke="gray" d="M755.5,598.5A6,6,0,1,1,743.5,598.5A6,6,0,1,1,755.5,598.5"></path><path id="kity_path_285" fill="none" stroke="gray" d="M745,598.5L754,598.5"></path></g><path id="node_outline29" fill="none" stroke="none" d="M704.5,587.5h34a5,5,0,0,1,5,5v12a5,5,0,0,1,-5,5h-34a5,5,0,0,1,-5,-5v-12a5,5,0,0,1,5,-5z"></path><g id="node_text29" fill="black"><text id="kity_text_153" text-rendering="inherit" font-size="12" dy=".8em" y="592.5" x="709.5">性质</text></g></g><g id="minder_node26"><g id="node_expander23" display="none" style="cursor: pointer;"><path id="kity_path_269" fill="white" stroke="gray" d="M671.5,494.5A6,6,0,1,1,659.5,494.5A6,6,0,1,1,671.5,494.5"></path><path id="kity_path_270" fill="none" stroke="gray"></path></g><path id="node_outline24" fill="none" stroke="none" d="M446.5,483.5h208a5,5,0,0,1,5,5v12a5,5,0,0,1,-5,5h-208a5,5,0,0,1,-5,-5v-12a5,5,0,0,1,5,-5z"></path><g id="node_text24" fill="black"><text id="kity_text_143" text-rendering="inherit" font-size="12" dy=".8em" y="488.5" x="451.5">Unit impulse is the identity element</text></g></g><g id="minder_node27"><g id="node_expander24" display="none" style="cursor: pointer;"><path id="kity_path_272" fill="white" stroke="gray" d="M671.5,546.5A6,6,0,1,1,659.5,546.5A6,6,0,1,1,671.5,546.5"></path><path id="kity_path_273" fill="none" stroke="gray"></path></g><path id="node_outline25" fill="none" stroke="none" d="M297.5,535.5h357a5,5,0,0,1,5,5v12a5,5,0,0,1,-5,5h-357a5,5,0,0,1,-5,-5v-12a5,5,0,0,1,5,-5z"></path><g id="node_text25" fill="black"><text id="kity_text_145" text-rendering="inherit" font-size="12" dy=".8em" y="540.5" x="302.5">Convolution of a signal with a shifted impulse shifts the signal</text></g></g><g id="minder_node28"><g id="node_expander25" display="none" style="cursor: pointer;"><path id="kity_path_275" fill="white" stroke="gray" d="M671.5,598.5A6,6,0,1,1,659.5,598.5A6,6,0,1,1,671.5,598.5"></path><path id="kity_path_276" fill="none" stroke="gray"></path></g><path id="node_outline26" fill="none" stroke="none" d="M511.5,587.5h143a5,5,0,0,1,5,5v12a5,5,0,0,1,-5,5h-143a5,5,0,0,1,-5,-5v-12a5,5,0,0,1,5,-5z"></path><g id="node_text26" fill="black"><text id="kity_text_147" text-rendering="inherit" font-size="12" dy=".8em" y="592.5" x="516.5">Commutative property</text></g></g><g id="minder_node29"><g id="node_expander26" display="none" style="cursor: pointer;"><path id="kity_path_278" fill="white" stroke="gray" d="M671.5,650.5A6,6,0,1,1,659.5,650.5A6,6,0,1,1,671.5,650.5"></path><path id="kity_path_279" fill="none" stroke="gray"></path></g><path id="node_outline27" fill="none" stroke="none" d="M529.5,639.5h125a5,5,0,0,1,5,5v12a5,5,0,0,1,-5,5h-125a5,5,0,0,1,-5,-5v-12a5,5,0,0,1,5,-5z"></path><g id="node_text27" fill="black"><text id="kity_text_149" text-rendering="inherit" font-size="12" dy=".8em" y="644.5" x="534.5">Distributive property</text></g></g><g id="minder_node30"><g id="node_expander27" display="none" style="cursor: pointer;"><path id="kity_path_281" fill="white" stroke="gray" d="M671.5,702.5A6,6,0,1,1,659.5,702.5A6,6,0,1,1,671.5,702.5"></path><path id="kity_path_282" fill="none" stroke="gray"></path></g><path id="node_outline28" fill="none" stroke="none" d="M526.5,691.5h128a5,5,0,0,1,5,5v12a5,5,0,0,1,-5,5h-128a5,5,0,0,1,-5,-5v-12a5,5,0,0,1,5,-5z"></path><g id="node_text28" fill="black"><text id="kity_text_151" text-rendering="inherit" font-size="12" dy=".8em" y="696.5" x="531.5">Associative property</text></g></g><g id="minder_node31"><g id="node_expander33" style="cursor: pointer;"><path id="kity_path_299" fill="white" stroke="gray" d="M755.5,832.5A6,6,0,1,1,743.5,832.5A6,6,0,1,1,755.5,832.5"></path><path id="kity_path_300" fill="none" stroke="gray" d="M745,832.5L754,832.5"></path></g><path id="node_outline34" fill="none" stroke="none" d="M643.5,821.5h95a5,5,0,0,1,5,5v12a5,5,0,0,1,-5,5h-95a5,5,0,0,1,-5,-5v-12a5,5,0,0,1,5,-5z"></path><g id="node_text34" fill="black"><text id="kity_text_163" text-rendering="inherit" font-size="12" dy=".8em" y="826.5" x="648.5">与LTI系统的联系</text></g></g><g id="minder_node32"><g id="node_expander29" display="none" style="cursor: pointer;"><path id="kity_path_287" fill="white" stroke="gray" d="M610.5,754.5A6,6,0,1,1,598.5,754.5A6,6,0,1,1,610.5,754.5"></path><path id="kity_path_288" fill="none" stroke="gray"></path></g><path id="node_outline30" fill="none" stroke="none" d="M96.5,743.5h497a5,5,0,0,1,5,5v12a5,5,0,0,1,-5,5h-497a5,5,0,0,1,-5,-5v-12a5,5,0,0,1,5,-5z"></path><g id="node_text30" fill="black"><text id="kity_text_155" text-rendering="inherit" font-size="12" dy=".8em" y="748.5" x="101.5">可以用impulse response表示一个LTI系统，输出信号是输入信号与impulse response的卷积</text></g></g><g id="minder_node33"><g id="node_expander30" display="none" style="cursor: pointer;"><path id="kity_path_290" fill="white" stroke="gray" d="M610.5,806.5A6,6,0,1,1,598.5,806.5A6,6,0,1,1,610.5,806.5"></path><path id="kity_path_291" fill="none" stroke="gray"></path></g><path id="node_outline31" fill="none" stroke="none" d="M25.5,795.5h568a5,5,0,0,1,5,5v12a5,5,0,0,1,-5,5h-568a5,5,0,0,1,-5,-5v-12a5,5,0,0,1,5,-5z"></path><g id="node_text31" fill="black"><text id="kity_text_157" text-rendering="inherit" font-size="12" dy=".8em" y="800.5" x="30.5">并联系统相当于impulse response相加代表的系统，串联系统相当于impulse response相卷积代表的系统</text></g></g><g id="minder_node34"><g id="node_expander31" display="none" style="cursor: pointer;"><path id="kity_path_293" fill="white" stroke="gray" d="M610.5,858.5A6,6,0,1,1,598.5,858.5A6,6,0,1,1,610.5,858.5"></path><path id="kity_path_294" fill="none" stroke="gray"></path></g><path id="node_outline32" fill="none" stroke="none" d="M292.5,847.5h301a5,5,0,0,1,5,5v12a5,5,0,0,1,-5,5h-301a5,5,0,0,1,-5,-5v-12a5,5,0,0,1,5,-5z"></path><g id="node_text32" fill="black"><text id="kity_text_159" text-rendering="inherit" font-size="12" dy=".8em" y="852.5" x="297.5">系统的因果性等价于impulse response的负数时域全零</text></g></g><g id="minder_node35"><g id="node_expander32" display="none" style="cursor: pointer;"><path id="kity_path_296" fill="white" stroke="gray" d="M610.5,910.5A6,6,0,1,1,598.5,910.5A6,6,0,1,1,610.5,910.5"></path><path id="kity_path_297" fill="none" stroke="gray"></path></g><path id="node_outline33" fill="none" stroke="none" d="M304.5,899.5h289a5,5,0,0,1,5,5v12a5,5,0,0,1,-5,5h-289a5,5,0,0,1,-5,-5v-12a5,5,0,0,1,5,-5z"></path><g id="node_text33" fill="black"><text id="kity_text_161" text-rendering="inherit" font-size="12" dy=".8em" y="904.5" x="309.5">系统的稳定性等价于impulse response的绝对收敛性</text></g></g></g></g></svg>